<svg width="1536" height="1024" viewBox="0 0 1536 1024" fill="none" xmlns="http://www.w3.org/2000/svg" role="img" aria-labelledby="title desc">
  <title id="title">GIUVA civil preparedness visual</title>
  <desc id="desc">Institutional but neutral visual for civil preparedness, community protocols and complementary cooperation.</desc>
  <defs>
    <linearGradient id="bg" x1="0" y1="0" x2="1536" y2="1024" gradientUnits="userSpaceOnUse">
      <stop stop-color="#F8FAFC"/>
      <stop offset="0.5" stop-color="#EAF4FF"/>
      <stop offset="1" stop-color="#D7EAFE"/>
    </linearGradient>
    <filter id="shadow" x="-20%" y="-20%" width="140%" height="140%">
      <feDropShadow dx="0" dy="22" stdDeviation="26" flood-color="#0F172A" flood-opacity="0.18"/>
    </filter>
  </defs>
  <rect width="1536" height="1024" fill="url(#bg)"/>
  <g opacity="0.38" stroke="#93C5FD" stroke-width="3">
    <path d="M90 802H1440"/>
    <path d="M164 730H1346"/>
    <path d="M236 658H1274"/>
    <path d="M310 586H1200"/>
  </g>
  <g filter="url(#shadow)">
    <rect x="190" y="156" width="1156" height="716" rx="30" fill="#FFFFFF"/>
    <rect x="240" y="224" width="430" height="584" rx="22" fill="#F1F5F9"/>
    <rect x="720" y="224" width="576" height="166" rx="22" fill="#EFF6FF"/>
    <rect x="720" y="426" width="576" height="166" rx="22" fill="#ECFDF5"/>
    <rect x="720" y="628" width="576" height="180" rx="22" fill="#F8FAFC"/>
  </g>
  <g transform="translate(330 284)">
    <path d="M126 0L252 70V174C252 264 198 334 126 374C54 334 0 264 0 174V70L126 0Z" fill="#2563EB"/>
    <path d="M76 188L112 224L184 132" stroke="#FFFFFF" stroke-width="24" stroke-linecap="round" stroke-linejoin="round"/>
  </g>
  <g fill="#0F172A">
    <text x="760" y="286" font-family="Arial, Helvetica, sans-serif" font-size="34" font-weight="900">Civil preparedness</text>
    <text x="760" y="334" font-family="Arial, Helvetica, sans-serif" font-size="23" font-weight="700" fill="#475569">Protocols, prevention and community education</text>
    <text x="760" y="488" font-family="Arial, Helvetica, sans-serif" font-size="34" font-weight="900">Complementary support</text>
    <text x="760" y="536" font-family="Arial, Helvetica, sans-serif" font-size="23" font-weight="700" fill="#475569">Only within legal roles and approved activities</text>
    <text x="760" y="692" font-family="Arial, Helvetica, sans-serif" font-size="34" font-weight="900">Volunteer wellbeing</text>
    <text x="760" y="740" font-family="Arial, Helvetica, sans-serif" font-size="23" font-weight="700" fill="#475569">Clear boundaries, safety culture and accountability</text>
  </g>
  <g fill="#2563EB">
    <circle cx="760" cy="330" r="8"/>
    <circle cx="760" cy="532" r="8"/>
    <circle cx="760" cy="736" r="8"/>
  </g>
  <text x="240" y="846" font-family="Arial, Helvetica, sans-serif" font-size="28" font-weight="900" fill="#1E3A8A">GIUVA • community preparedness and institutional cooperation</text>
</svg>
