<svg width="1536" height="1024" viewBox="0 0 1536 1024" fill="none" xmlns="http://www.w3.org/2000/svg" role="img" aria-labelledby="title desc">
  <title id="title">GIUVA civic resilience visual</title>
  <desc id="desc">Abstract European civic resilience network with city grid, AED awareness, community nodes and preparedness routes.</desc>
  <defs>
    <linearGradient id="bg" x1="0" y1="0" x2="1536" y2="1024" gradientUnits="userSpaceOnUse">
      <stop stop-color="#06172F"/>
      <stop offset="0.48" stop-color="#0F2E55"/>
      <stop offset="1" stop-color="#EAF4FF"/>
    </linearGradient>
    <linearGradient id="panel" x1="260" y1="170" x2="1290" y2="860" gradientUnits="userSpaceOnUse">
      <stop stop-color="#FFFFFF" stop-opacity="0.96"/>
      <stop offset="1" stop-color="#CFE9FF" stop-opacity="0.84"/>
    </linearGradient>
    <filter id="soft" x="-20%" y="-20%" width="140%" height="140%">
      <feDropShadow dx="0" dy="24" stdDeviation="30" flood-color="#001633" flood-opacity="0.35"/>
    </filter>
  </defs>
  <rect width="1536" height="1024" fill="url(#bg)"/>
  <g opacity="0.22">
    <path d="M70 810H1466" stroke="#FFFFFF" stroke-width="2"/>
    <path d="M70 690H1466" stroke="#FFFFFF" stroke-width="2"/>
    <path d="M70 570H1466" stroke="#FFFFFF" stroke-width="2"/>
    <path d="M70 450H1466" stroke="#FFFFFF" stroke-width="2"/>
    <path d="M70 330H1466" stroke="#FFFFFF" stroke-width="2"/>
    <path d="M210 190V890" stroke="#FFFFFF" stroke-width="2"/>
    <path d="M410 190V890" stroke="#FFFFFF" stroke-width="2"/>
    <path d="M610 190V890" stroke="#FFFFFF" stroke-width="2"/>
    <path d="M810 190V890" stroke="#FFFFFF" stroke-width="2"/>
    <path d="M1010 190V890" stroke="#FFFFFF" stroke-width="2"/>
    <path d="M1210 190V890" stroke="#FFFFFF" stroke-width="2"/>
  </g>
  <g filter="url(#soft)">
    <rect x="214" y="156" width="1108" height="704" rx="28" fill="url(#panel)"/>
    <rect x="246" y="190" width="1044" height="636" rx="22" fill="#F8FBFF"/>
  </g>
  <g opacity="0.92">
    <path d="M330 700C438 560 554 620 650 506C746 392 858 406 950 310C1022 234 1122 254 1210 190" stroke="#2563EB" stroke-width="14" stroke-linecap="round"/>
    <path d="M330 700C438 560 554 620 650 506C746 392 858 406 950 310C1022 234 1122 254 1210 190" stroke="#93C5FD" stroke-width="4" stroke-linecap="round"/>
    <circle cx="330" cy="700" r="28" fill="#16A34A" stroke="#FFFFFF" stroke-width="8"/>
    <circle cx="650" cy="506" r="28" fill="#2563EB" stroke="#FFFFFF" stroke-width="8"/>
    <circle cx="950" cy="310" r="28" fill="#DC2626" stroke="#FFFFFF" stroke-width="8"/>
    <circle cx="1210" cy="190" r="28" fill="#0F766E" stroke="#FFFFFF" stroke-width="8"/>
  </g>
  <g transform="translate(598 292)">
    <rect width="340" height="340" rx="42" fill="#FFFFFF" stroke="#D7E7F7" stroke-width="4"/>
    <path d="M170 104C203 62 270 84 270 145C270 204 203 247 170 286C137 247 70 204 70 145C70 84 137 62 170 104Z" fill="#DC2626"/>
    <path d="M170 124V238" stroke="#FFFFFF" stroke-width="26" stroke-linecap="round"/>
    <path d="M113 181H227" stroke="#FFFFFF" stroke-width="26" stroke-linecap="round"/>
    <path d="M56 300H284" stroke="#2563EB" stroke-width="10" stroke-linecap="round"/>
  </g>
  <g fill="#0F172A">
    <text x="278" y="264" font-family="Arial, Helvetica, sans-serif" font-size="34" font-weight="900" letter-spacing="2">GIUVA</text>
    <text x="278" y="306" font-family="Arial, Helvetica, sans-serif" font-size="22" font-weight="700" fill="#2563EB">Urban volunteering and awareness network</text>
    <text x="278" y="778" font-family="Arial, Helvetica, sans-serif" font-size="24" font-weight="700" fill="#334155">Civic volunteering • AED awareness • Community preparedness</text>
  </g>
  <g fill="#CBD5E1">
    <rect x="1030" y="610" width="42" height="154" rx="6"/>
    <rect x="1096" y="548" width="42" height="216" rx="6"/>
    <rect x="1162" y="498" width="42" height="266" rx="6"/>
    <rect x="1228" y="584" width="42" height="180" rx="6"/>
  </g>
</svg>
